HIERARCHY
ROOT Hips
{
  OFFSET 0 0 0
  CHANNELS 6 Xposition Yposition Zposition Zrotation Yrotation Xrotation
  JOINT LeftThigh
  {
    OFFSET 8.409438 0 -5.917753
    CHANNELS 3 Zrotation Yrotation Xrotation
    JOINT LeftLeg
    {
      OFFSET 0 0 -42.358652
      CHANNELS 3 Zrotation Yrotation Xrotation
      JOINT LeftFoot
      {
        OFFSET 0 0 -39.357303
        CHANNELS 3 Zrotation Yrotation Xrotation
      }
    }
  }
  JOINT RightThigh
  {
    OFFSET -8.409438 0 -5.917753
    CHANNELS 3 Zrotation Yrotation Xrotation
    JOINT RightLeg
    {
      OFFSET 0 0 -42.358652
      CHANNELS 3 Zrotation Yrotation Xrotation
      JOINT RightFoot
      {
        OFFSET 0 0 -39.357303
        CHANNELS 3 Zrotation Yrotation Xrotation
      }
    }
  }
  JOINT SpineLow
  {
    OFFSET 0 0 4.719101
    CHANNELS 3 Zrotation Yrotation Xrotation
    JOINT SpineMid
    {
      OFFSET 0 0 12.899191
      CHANNELS 3 Zrotation Yrotation Xrotation
      JOINT Chest
      {
        OFFSET 0 0 12.899191
        CHANNELS 3 Zrotation Yrotation Xrotation
        JOINT LeftShoulder
        {
          OFFSET 7.550562 1.41573 9.438202
          CHANNELS 3 Zrotation Yrotation Xrotation
          JOINT LeftArm
          {
            OFFSET 9.155056 0 4.247191
            CHANNELS 3 Zrotation Yrotation Xrotation
            JOINT LeftForearm
            {
              OFFSET 0 0 25.771955
              CHANNELS 3 Zrotation Yrotation Xrotation
              JOINT LeftHand
              {
                OFFSET 0 0 25.197169
                CHANNELS 3 Zrotation Yrotation Xrotation
              }
            }
          }
        }
        JOINT RightShoulder
        {
          OFFSET -7.550562 1.41573 9.438202
          CHANNELS 3 Zrotation Yrotation Xrotation
          JOINT RightArm
          {
            OFFSET -9.155056 0 4.247191
            CHANNELS 3 Zrotation Yrotation Xrotation
            JOINT RightForearm
            {
              OFFSET 0 0 -25.771955
              CHANNELS 3 Zrotation Yrotation Xrotation
              JOINT RightHand
              {
                OFFSET 0 0 -25.197169
                CHANNELS 3 Zrotation Yrotation Xrotation
              }
            }
          }
        }
        JOINT Neck
        {
          OFFSET 0 0 15.101124
          CHANNELS 3 Zrotation Yrotation Xrotation
          JOINT Head
          {
            OFFSET 0 0 11.325843
            CHANNELS 3 Zrotation Yrotation Xrotation
            End Site
            {
              OFFSET 0 0 14.157303
            }
          }
        }
      }
    }
  }
}
MOTION
Frames: 16
Frame Time: 0.0
0.0  93.25843  0.0  -108.937373  33.447757  176.223311  43.22443  -41.65942  -57.001498  1.407484  6.567715  6.452596  2.058507  -3.632663  -1.734611  11.975002  38.84004  -35.822742  -21.01359  8.608011  31.974176  -2.347627  -4.533016  -6.109289  0.657595  -4.364566  -1.125232  2.022228  -11.895064  -3.227574  2.022228  -11.895063  -3.227573  -32.668349  28.227822  2.827389  128.33321  48.940234  -150.084411  -21.916672  0.853945  68.995097  41.90384  -1.726098  7.63743  -3.897951  -7.080919  18.220709  29.26698  51.523036  7.737913  -34.283141  -27.488918  -92.019371  66.315268  18.700072  7.066553  -22.778133  -6.672188  10.918339  -16.951275  -5.421677  7.942848  
0.0  93.25843  0.0  -109.804816  33.247822  176.011623  44.805558  -40.209773  -58.401633  1.419931  6.964213  6.624571  0.782068  -3.393431  -2.167259  11.045951  37.791231  -36.800174  -20.260665  9.787482  34.618695  -2.484783  -4.306884  -6.126394  0.516077  -4.319195  -1.233386  1.648664  -11.775219  -3.498523  1.648664  -11.775219  -3.498524  -33.018629  28.702438  2.88964  128.914572  49.51882  -150.219345  -21.340085  1.014947  69.320355  41.85696  -2.097735  7.593174  -3.654263  -6.88154  18.150788  28.280829  50.716983  6.89587  -33.786842  -27.661727  -93.165993  66.594007  18.623517  7.493122  -22.86103  -6.543246  10.828959  -17.017332  -5.322971  7.880205  
0.0  93.25843  0.0  -110.975337  33.229196  174.944539  46.463862  -38.672793  -59.41388  0.794242  7.787402  6.861588  0.046936  -3.217285  -2.601172  7.631768  35.118536  -38.502881  -17.900025  11.980703  36.973221  -1.990692  -4.302983  -6.062715  0.209097  -4.259758  -1.18277  0.789102  -11.629918  -3.301726  0.789102  -11.629918  -3.301725  -33.076403  29.093163  2.346043  128.62422  49.819095  -151.058078  -21.147422  0.677706  69.419181  41.768797  -2.490784  7.543229  -3.086145  -6.801694  18.121782  27.723487  50.237382  6.113688  -33.303127  -27.759958  -94.411332  66.828216  18.656348  7.939794  -22.529128  -6.359627  10.682494  -16.774241  -5.173414  7.78084  
0.0  93.25843  0.0  -111.56273  33.289947  174.739827  47.663598  -37.235539  -60.115905  0.625765  8.073418  7.114127  -0.51651  -3.111429  -3.009884  2.691383  31.449238  -41.843888  -14.490146  14.866929  39.265204  -1.214637  -4.402049  -5.819305  -0.031689  -4.204969  -1.166127  0.119012  -11.492289  -3.211952  0.119012  -11.492289  -3.211952  -32.877798  29.244858  1.589018  127.582297  49.997177  -152.020367  -20.835306  0.493646  68.846352  41.889736  -3.327406  7.189446  -2.00145  -6.960508  17.700058  27.26569  49.981794  5.881696  -32.89249  -27.823722  -95.705487  66.990844  18.738258  8.173837  -22.010679  -6.24385  10.470817  -16.39024  -5.06927  7.631369  
0.0  93.25843  0.0  -113.714187  33.38125  171.904261  44.846547  -37.794759  -58.420435  1.055202  7.739711  7.191614  -0.408536  -3.102119  -2.990665  -2.788998  27.565347  -43.191176  -10.977679  18.191205  41.513296  -0.146978  -4.444864  -5.498989  -0.500414  -4.120712  -0.961597  -1.213297  -11.281045  -2.565412  -1.213297  -11.281045  -2.565412  -32.648603  29.425135  1.202455  126.209611  50.238182  -152.661469  -21.384519  0.007686  68.092061  41.994187  -3.335191  7.203214  -1.44968  -7.143801  17.659122  26.964681  50.104936  5.757969  -32.523587  -27.866167  -97.059437  67.262221  18.721719  8.075273  -21.642915  -6.073434  10.360874  -16.119377  -4.930746  7.558785  
0.0  93.25843  0.0  -113.694342  33.515136  172.049861  44.21926  -37.268755  -58.230904  0.885279  7.256638  7.264659  0.324426  -3.210205  -2.709885  -6.756666  23.609281  -45.968847  -7.732841  21.594486  43.747372  1.11932  -4.40983  -5.221718  -0.573381  -4.08849  -1.038242  -1.402427  -11.197244  -2.764526  -1.402427  -11.197244  -2.764526  -32.469267  29.696573  1.401882  124.654102  50.607348  -153.033174  -21.803786  -0.30575  67.314653  42.296069  -3.370846  7.050982  -1.507793  -7.233641  18.103449  26.544864  50.323094  5.410168  -32.212806  -27.641352  -98.307843  67.700522  18.505753  7.710919  -21.441428  -5.854034  10.44402  -15.972464  -4.765327  7.631295  
0.0  93.25843  0.0  -113.530355  33.785973  172.196872  44.168224  -36.58343  -58.348674  0.716203  6.844284  7.318857  0.282124  -3.147362  -2.311401  -9.262399  20.284249  -47.748169  -5.023505  24.815203  46.045492  2.481541  -4.350972  -5.063667  -0.631027  -4.05804  -1.132696  -1.546342  -11.118419  -3.015483  -1.546342  -11.11842  -3.015483  -32.282868  30.105678  1.816658  123.723622  51.648343  -153.166437  -21.960878  -0.058984  66.550983  42.408613  -3.499753  6.974573  -1.748801  -7.181962  18.753423  25.988085  50.513799  4.980593  -31.954028  -27.062031  -99.366573  68.2133  18.057914  7.291301  -21.219235  -5.57891  10.661413  -15.810165  -4.56234  7.806646  
0.0  93.25843  0.0  -113.156524  34.171225  172.490056  44.374502  -36.118502  -58.511428  0.152803  6.916504  7.472004  0.925539  -3.175561  -2.211719  -9.86083  18.149156  -48.677837  -3.237532  27.624444  48.625344  3.538914  -4.34364  -4.999031  -0.703622  -4.03291  -1.233794  -1.730284  -11.055423  -3.28221  -1.730284  -11.055423  -3.28221  -31.937096  30.702585  2.369462  123.055203  52.615586  -153.209898  -21.662493  -0.185849  66.031259  42.435567  -3.681455  6.895403  -1.860846  -6.984567  19.325331  25.498115  50.559123  4.804023  -31.62047  -26.281777  -100.372957  68.630009  17.476741  7.005548  -20.87201  -5.304906  10.969429  -15.553511  -4.360869  8.050702  
0.0  93.25843  0.0  -112.869434  34.656238  172.763779  44.229694  -36.122736  -58.4474  0.244236  7.24649  7.786412  1.658058  -3.197947  -1.885773  -8.823917  17.525889  -49.299807  -2.444713  29.655033  52.083443  3.816731  -4.302971  -5.092006  -0.836647  -3.988519  -1.319938  -2.084382  -10.943073  -3.497968  -2.084382  -10.943072  -3.497968  -31.371844  30.894931  2.38481  123.08188  53.718818  -152.966756  -21.197677  0.432028  65.529618  42.580557  -3.889359  6.748878  -1.618093  -6.796673  19.743627  24.80228  50.464976  4.723503  -30.972848  -25.505195  -101.506911  68.886453  16.921417  6.942154  -20.415032  -5.14708  11.295129  -15.211985  -4.244832  8.304315  
0.0  93.25843  0.0  -112.776215  35.209714  172.936455  43.837496  -36.387716  -58.251325  1.252731  7.569134  8.550006  1.516284  -3.240619  -2.034258  -7.125102  17.911786  -49.995842  -2.120842  30.729674  56.262822  3.338067  -4.127347  -5.169773  -1.029645  -3.936067  -1.369724  -2.610351  -10.811484  -3.60414  -2.610351  -10.811485  -3.604141  -30.969383  31.23238  2.430847  123.610837  54.572284  -152.421253  -20.351272  0.52675  65.15953  42.909314  -4.085001  6.554553  -1.378454  -6.579133  19.826783  24.267669  50.353989  4.797448  -29.793436  -24.986786  -102.927479  69.099985  16.422209  7.071227  -19.896005  -5.091141  11.506222  -14.822531  -4.199865  8.468533  
0.0  93.25843  0.0  -112.576946  35.758607  173.227182  43.624685  -36.5055  -57.873441  2.118751  7.8383  8.816214  1.317449  -3.11374  -2.143994  -5.324058  18.552187  -50.963252  -1.872545  31.082124  60.723526  2.488136  -3.802924  -5.144231  -1.225931  -3.898097  -1.411281  -3.146036  -10.719921  -3.687324  -3.146036  -10.719921  -3.687324  -30.652052  31.560634  2.331785  124.105002  55.41122  -151.923468  -19.687762  0.702201  64.735026  43.414802  -4.273093  6.331995  -1.515918  -6.264898  20.080144  23.843831  50.422934  4.71056  -28.604615  -24.672018  -103.801523  68.819201  16.53091  6.499504  -19.385515  -5.048968  11.648391  -14.439674  -4.16285  8.580393  
0.0  93.25843  0.0  -112.142078  36.320164  173.683994  43.633679  -36.673231  -57.446367  2.627048  8.385134  8.972652  1.620471  -2.998601  -1.94842  -3.786211  18.894886  -52.114256  -1.404183  31.235079  65.141411  1.809048  -3.443602  -5.123813  -1.391767  -3.882198  -1.459584  -3.59566  -10.687856  -3.793666  -3.59566  -10.687856  -3.793666  -30.441905  31.871847  2.148999  123.958251  56.15842  -151.880402  -19.469969  0.715167  64.297924  43.949985  -4.449889  6.133088  -1.429215  -5.975514  20.015035  23.656358  50.516872  4.959903  -27.004864  -24.776034  -105.512947  68.989853  16.09865  6.411321  -18.948199  -4.950067  11.754384  -14.113255  -4.08332  8.666413  
0.0  93.25843  0.0  -111.688356  36.884074  174.12376  43.694624  -36.662109  -57.110771  3.10843  8.834244  9.486977  1.487727  -2.958742  -2.086432  -2.791835  18.690796  -53.313629  -0.64345  31.464264  69.260997  2.256774  -4.386377  -7.609794  -1.563821  -3.886433  -1.493324  -4.063863  -10.710827  -3.858004  -4.063863  -10.710827  -3.858004  -30.263904  32.10949  1.866873  123.076912  56.779531  -152.334802  -19.616913  0.351277  63.904654  44.41238  -4.589264  5.902403  -1.374184  -5.739794  19.810945  23.851292  50.737692  5.46827  -25.597729  -24.889581  -107.234082  69.137705  15.737705  6.194055  -18.508241  -4.810822  11.781528  -13.786327  -3.970883  8.694459  
0.0  93.25843  0.0  -110.922635  37.485186  174.708023  43.997542  -36.200926  -56.778101  2.812826  9.082609  9.895665  1.572083  -2.926106  -2.16915  -1.904156  17.938102  -54.43316  0.347395  31.97665  73.048976  2.423046  -3.926742  -7.537682  -1.722535  -3.918826  -1.501075  -4.498357  -10.808596  -3.851238  -4.498357  -10.808596  -3.851239  -30.113122  32.308944  1.436184  122.040165  57.218592  -152.944044  -19.812369  -0.270689  63.604079  44.817835  -4.720092  5.571184  -1.470348  -5.444914  19.465884  24.708567  51.05003  6.073022  -24.614338  -24.810661  -108.617725  69.303102  15.509632  5.942553  -17.989816  -4.602599  11.743908  -13.402509  -3.803141  8.676415  
0.0  93.25843  0.0  -110.345572  38.169417  174.678647  43.75314  -35.710468  -55.953656  2.187902  9.145173  10.249919  1.909028  -2.839183  -2.082377  -1.136648  16.892878  -54.904799  1.366235  32.796037  76.493674  2.752319  -3.464537  -7.37811  -1.960407  -3.938699  -1.422802  -5.166082  -10.86998  -3.594513  -5.166083  -10.86998  -3.594513  -29.963652  32.440852  0.942005  121.352447  57.661464  -153.481888  -19.924702  -0.89433  63.414281  45.185938  -4.878961  5.144064  -1.464487  -5.198626  18.966938  26.260817  51.481944  6.388993  -24.231326  -24.445036  -109.345522  69.59582  15.228054  5.978525  -17.343657  -4.38156  11.684021  -12.923224  -3.622722  8.642489  
0.0  93.25843  0.0  -108.949091  38.953992  175.662249  44.322975  -34.585981  -55.512817  1.410191  9.019031  10.59703  2.357921  -2.809255  -2.053384  0.090724  15.600701  -55.782017  2.339864  33.822982  79.714799  3.032662  -2.998442  -7.184236  -2.113635  -3.973487  -1.40937  -5.589331  -10.971629  -3.529135  -5.589331  -10.971628  -3.529135  -29.750671  32.450695  0.495149  121.26014  58.088952  -153.716288  -19.952516  -1.299981  63.328146  45.574651  -5.053555  4.677236  -1.426495  -4.962287  18.397928  27.802889  51.785043  7.225968  -23.596936  -24.095107  -110.298581  69.693293  15.215258  5.941765  -16.627579  -4.131563  11.667725  -12.391752  -3.420561  8.642056  
